<svg width="100" height="59" viewBox="0 0 100 59" fill="none" xmlns="http://www.w3.org/2000/svg">
<g id="Group 1000004178">
<rect id="Rectangle 133" x="0.5" y="0.5" width="99" height="58" rx="7.5" fill="white" stroke="#C1C1C1"/>
<path id="Vector" d="M39.3029 23.7469C40.3216 21.7183 41.8845 20.0129 43.8169 18.8214C45.7492 17.6299 47.9748 16.9993 50.2449 17C53.5449 17 56.3171 18.2135 58.4367 20.1898L54.9261 23.7016C53.6563 22.4882 52.0424 21.8698 50.2449 21.8698C47.0551 21.8698 44.3551 24.0249 43.3939 26.9184C43.149 27.6531 43.0094 28.4367 43.0094 29.2449C43.0094 30.0531 43.149 30.8367 43.3939 31.5714C44.3563 34.4661 47.0551 36.62 50.2449 36.62C51.8918 36.62 53.2939 36.1853 54.391 35.4506C55.0271 35.0318 55.5716 34.4884 55.9917 33.8533C56.4118 33.2181 56.6987 32.5043 56.8351 31.7551H50.2449V27.0188H61.7771C61.9216 27.8196 62 28.6547 62 29.5229C62 33.2527 60.6653 36.3922 58.3486 38.5229C56.3233 40.3939 53.551 41.4898 50.2449 41.4898C48.6367 41.4904 47.0441 41.1742 45.5582 40.559C44.0723 39.9439 42.7222 39.042 41.585 37.9048C40.4478 36.7676 39.5459 35.4175 38.9308 33.9316C38.3156 32.4457 37.9994 30.8531 38 29.2449C38 27.2686 38.4727 25.4 39.3029 23.7469Z" fill="#616161"/>
</g>
</svg>
