<svg width="100" height="59" viewBox="0 0 100 59" fill="none" xmlns="http://www.w3.org/2000/svg">
<g id="Group 1000004179">
<g id="Group 1000004176">
<rect id="Rectangle 135" x="0.5" y="0.5" width="99" height="58" rx="7.5" fill="white" stroke="#C1C1C1"/>
<path id="Vector" d="M56.5867 21.76C55.6752 20.7195 55.173 19.3832 55.1733 18H51.0533V34.5333C51.0216 35.428 50.6438 36.2755 49.9997 36.8973C49.3555 37.519 48.4953 37.8665 47.6 37.8667C45.7067 37.8667 44.1333 36.32 44.1333 34.4C44.1333 32.1067 46.3467 30.3867 48.6267 31.0933V26.88C44.0267 26.2667 40 29.84 40 34.4C40 38.84 43.68 42 47.5867 42C51.7733 42 55.1733 38.6 55.1733 34.4V26.0133C56.844 27.2131 58.8498 27.8569 60.9067 27.8533V23.7333C60.9067 23.7333 58.4 23.8533 56.5867 21.76Z" fill="#616161"/>
</g>
</g>
</svg>
