<svg width="23" height="19" viewBox="0 0 23 19" fill="none" xmlns="http://www.w3.org/2000/svg">
<path id="Vector" fill-rule="evenodd" clip-rule="evenodd" d="M1.3478 1.33985C-1.56675e-07 2.67855 0 4.83465 0 9.14571C0 13.4568 -1.56675e-07 15.6129 1.3478 16.9516C2.69445 18.2914 4.86335 18.2914 9.2 18.2914H13.8C18.1367 18.2914 20.3055 18.2914 21.6522 16.9516C23 15.6129 23 13.4568 23 9.14571C23 4.83465 23 2.67855 21.6522 1.33985C20.3055 -1.56675e-07 18.1367 0 13.8 0H9.2C4.86335 0 2.69445 -1.56675e-07 1.3478 1.33985ZM19.0624 4.02411C19.2087 4.19878 19.2793 4.42407 19.2586 4.65045C19.2379 4.87683 19.1276 5.08577 18.952 5.23134L16.4266 7.32342C15.4066 8.1694 14.5809 8.85304 13.8506 9.31948C13.0916 9.80534 12.3521 10.1117 11.5 10.1117C10.6479 10.1117 9.9084 9.8042 9.14825 9.31948C8.41915 8.85304 7.59345 8.16826 6.5734 7.32457L4.048 5.23249C3.87217 5.08695 3.76169 4.87794 3.74088 4.65143C3.72007 4.42493 3.79063 4.19948 3.93703 4.02468C4.08342 3.84989 4.29368 3.74007 4.52153 3.71938C4.74938 3.69869 4.97617 3.76883 5.152 3.91436L7.636 5.971C8.70895 6.85928 9.453 7.47433 10.0832 7.87674C10.6916 8.26543 11.1044 8.3969 11.5012 8.3969C11.8979 8.3969 12.3108 8.26657 12.9191 7.87674C13.5482 7.47433 14.2934 6.85928 15.3663 5.971L17.8492 3.91322C18.025 3.76788 18.2517 3.69792 18.4794 3.71871C18.7072 3.73951 18.9161 3.84936 19.0624 4.02411Z" fill="#616161"/>
</svg>
