<svg width="20" height="26" viewBox="0 0 20 26" fill="none" xmlns="http://www.w3.org/2000/svg">
<path id="Vector" d="M2.47619 26C1.79524 26 1.21251 25.7577 0.728 25.2732C0.243492 24.7887 0.000825397 24.2056 0 23.5238V11.1429C0 10.4619 0.242666 9.87917 0.728 9.39467C1.21333 8.91016 1.79606 8.66749 2.47619 8.66667H3.71429V6.19048C3.71429 4.47778 4.31806 3.01806 5.52562 1.81133C6.73317 0.604603 8.19289 0.000825397 9.90476 0C11.6175 0 13.0776 0.603778 14.2851 1.81133C15.4927 3.01889 16.0961 4.4786 16.0952 6.19048V8.66667H17.3333C18.0143 8.66667 18.5974 8.90933 19.0828 9.39467C19.5681 9.88 19.8103 10.4627 19.8095 11.1429V23.5238C19.8095 24.2048 19.5673 24.7879 19.0828 25.2732C18.5983 25.7586 18.0151 26.0008 17.3333 26H2.47619ZM9.90476 19.8095C10.5857 19.8095 11.1689 19.5673 11.6542 19.0828C12.1395 18.5983 12.3818 18.0151 12.381 17.3333C12.381 16.6524 12.1387 16.0697 11.6542 15.5851C11.1697 15.1006 10.5865 14.858 9.90476 14.8571C9.22381 14.8571 8.64108 15.0998 8.15657 15.5851C7.67206 16.0705 7.4294 16.6532 7.42857 17.3333C7.42857 18.0143 7.67124 18.5974 8.15657 19.0828C8.6419 19.5681 9.22463 19.8103 9.90476 19.8095ZM6.19048 8.66667H13.619V6.19048C13.619 5.15873 13.2579 4.28175 12.5357 3.55952C11.8135 2.8373 10.9365 2.47619 9.90476 2.47619C8.87302 2.47619 7.99603 2.8373 7.27381 3.55952C6.55159 4.28175 6.19048 5.15873 6.19048 6.19048V8.66667Z" fill="#616161"/>
</svg>
